<svg xmlns="http://www.w3.org/2000/svg" viewBox="0 0 1224 24" width="1224" height="24"><g><defs><clipPath id="clip_frame0_path_1"><path d="M5.06 1.711h13.994c1.892 0 3.416 1.371 3.416 3.073v10.411c0 1.703-1.524 3.074-3.416 3.074H5.305l-3.651 3.346-.01-1.833V4.784c0-1.702 1.523-3.073 3.416-3.073z"/></clipPath></defs><path d="M5.06 1.711h13.994c1.892 0 3.416 1.371 3.416 3.073v10.411c0 1.703-1.524 3.074-3.416 3.074H5.305l-3.651 3.346-.01-1.833V4.784c0-1.702 1.523-3.073 3.416-3.073z" fill="#ffffff" stroke="#000000" stroke-width="2" stroke-miterlimit="10"/><path clip-path="url(#clip_frame0_path_1)" d="M-.239 21.243s3.074-.562 9.831-.411c7.074.159 8.237.378 15.04-.021v1.847H-.239z" fill="#000000" stroke="#000000" stroke-width=".379499"/><path d="M.045 5.786l17.276-.09" fill="none" stroke="#ffffff" stroke-width="2.6" stroke-dasharray="0,17.276234427675494" stroke-dashoffset="17.276234"/><path d="M-.045 9.607l14.018-.044" fill="none" stroke="#ffffff" stroke-width="2.6" stroke-dasharray="0,14.018069053903252" stroke-dashoffset="14.018069"/><path d="M.045 13.473h11.518" fill="none" stroke="#ffffff" stroke-width="2.6" stroke-dasharray="0,11.518" stroke-dashoffset="11.518"/></g><g transform="translate(24)"><defs><clipPath id="clip_frame1_path_1"><path d="M5.06 1.711h13.994c1.892 0 3.416 1.371 3.416 3.073v10.411c0 1.703-1.524 3.074-3.416 3.074H5.305l-3.651 3.346-.01-1.833V4.784c0-1.702 1.523-3.073 3.416-3.073z"/></clipPath></defs><path d="M5.06 1.711h13.994c1.892 0 3.416 1.371 3.416 3.073v10.411c0 1.703-1.524 3.074-3.416 3.074H5.305l-3.651 3.346-.01-1.833V4.784c0-1.702 1.523-3.073 3.416-3.073z" fill="#ffffff" stroke="#000000" stroke-width="2" stroke-miterlimit="10"/><path clip-path="url(#clip_frame1_path_1)" d="M-.239 21.141s3.074-.602 9.831-.44c7.074.17 8.237.405 15.04-.023v1.98H-.239z" fill="#000000" stroke="#000000" stroke-width=".379499"/><path d="M.045 5.786l17.276-.09" fill="none" stroke="#ffffff" stroke-width="2.6" stroke-dasharray="0,17.276234427675494" stroke-dashoffset="17.276234"/><path d="M-.045 9.607l14.018-.044" fill="none" stroke="#ffffff" stroke-width="2.6" stroke-dasharray="0,14.018069053903252" stroke-dashoffset="14.018069"/><path d="M.045 13.473h11.518" fill="none" stroke="#ffffff" stroke-width="2.6" stroke-dasharray="0,11.518" stroke-dashoffset="11.518"/></g><g transform="translate(48)"><defs><clipPath id="clip_frame2_path_1"><path d="M5.06 1.711h13.994c1.892 0 3.416 1.371 3.416 3.073v10.411c0 1.703-1.524 3.074-3.416 3.074H5.305l-3.651 3.346-.01-1.833V4.784c0-1.702 1.523-3.073 3.416-3.073z"/></clipPath></defs><path d="M5.06 1.711h13.994c1.892 0 3.416 1.371 3.416 3.073v10.411c0 1.703-1.524 3.074-3.416 3.074H5.305l-3.651 3.346-.01-1.833V4.784c0-1.702 1.523-3.073 3.416-3.073z" fill="#ffffff" stroke="#000000" stroke-width="2" stroke-miterlimit="10"/><path clip-path="url(#clip_frame2_path_1)" d="M-.239 20.791s3.074-.742 9.831-.542c7.074.209 8.237.498 15.04-.028v2.437H-.239z" fill="#000000" stroke="#000000" stroke-width=".379499"/><path d="M.045 5.786l17.276-.09" fill="none" stroke="#ffffff" stroke-width="2.6" stroke-dasharray="0,17.276234427675494" stroke-dashoffset="17.276234"/><path d="M-.045 9.607l14.018-.044" fill="none" stroke="#ffffff" stroke-width="2.6" stroke-dasharray="0,14.018069053903252" stroke-dashoffset="14.018069"/><path d="M.045 13.473h11.518" fill="none" stroke="#ffffff" stroke-width="2.6" stroke-dasharray="0,11.518" stroke-dashoffset="11.518"/></g><g transform="translate(72)"><defs><clipPath id="clip_frame3_path_1"><path d="M5.06 1.711h13.994c1.892 0 3.416 1.371 3.416 3.073v10.411c0 1.703-1.524 3.074-3.416 3.074H5.305l-3.651 3.346-.01-1.833V4.784c0-1.702 1.523-3.073 3.416-3.073z"/></clipPath></defs><path d="M5.06 1.711h13.994c1.892 0 3.416 1.371 3.416 3.073v10.411c0 1.703-1.524 3.074-3.416 3.074H5.305l-3.651 3.346-.01-1.833V4.784c0-1.702 1.523-3.073 3.416-3.073z" fill="#ffffff" stroke="#000000" stroke-width="2" stroke-miterlimit="10"/><path clip-path="url(#clip_frame3_path_1)" d="M-.239 20.099s3.074-1.017 9.831-.743c7.074.287 8.237.684 15.04-.039v3.341H-.239z" fill="#000000" stroke="#000000" stroke-width=".379499"/><path d="M.045 5.786l17.276-.09" fill="none" stroke="#ffffff" stroke-width="2.6" stroke-dasharray="0,17.276234427675494" stroke-dashoffset="17.276234"/><path d="M-.045 9.607l14.018-.044" fill="none" stroke="#ffffff" stroke-width="2.6" stroke-dasharray="0,14.018069053903252" stroke-dashoffset="14.018069"/><path d="M.045 13.473h11.518" fill="none" stroke="#ffffff" stroke-width="2.6" stroke-dasharray="0,11.518" stroke-dashoffset="11.518"/></g><g transform="translate(96)"><defs><clipPath id="clip_frame4_path_1"><path d="M5.06 1.711h13.994c1.892 0 3.416 1.371 3.416 3.073v10.411c0 1.703-1.524 3.074-3.416 3.074H5.305l-3.651 3.346-.01-1.833V4.784c0-1.702 1.523-3.073 3.416-3.073z"/></clipPath></defs><path d="M5.06 1.711h13.994c1.892 0 3.416 1.371 3.416 3.073v10.411c0 1.703-1.524 3.074-3.416 3.074H5.305l-3.651 3.346-.01-1.833V4.784c0-1.702 1.523-3.073 3.416-3.073z" fill="#ffffff" stroke="#000000" stroke-width="2" stroke-miterlimit="10"/><path clip-path="url(#clip_frame4_path_1)" d="M-.239 18.937s3.074-1.477 9.831-1.08c7.074.417 8.237.994 15.04-.056v4.857H-.239z" fill="#000000" stroke="#000000" stroke-width=".379499"/><path d="M.045 5.786l17.276-.09" fill="none" stroke="#ffffff" stroke-width="2.6" stroke-dasharray="0,17.276234427675494" stroke-dashoffset="17.276234"/><path d="M-.045 9.607l14.018-.044" fill="none" stroke="#ffffff" stroke-width="2.6" stroke-dasharray="0,14.018069053903252" stroke-dashoffset="14.018069"/><path d="M.045 13.473h11.518" fill="none" stroke="#ffffff" stroke-width="2.6" stroke-dasharray="0,11.518" stroke-dashoffset="11.518"/></g><g transform="translate(120)"><defs><clipPath id="clip_frame5_path_1"><path d="M5.06 1.711h13.994c1.892 0 3.416 1.371 3.416 3.073v10.411c0 1.703-1.524 3.074-3.416 3.074H5.305l-3.651 3.346-.01-1.833V4.784c0-1.702 1.523-3.073 3.416-3.073z"/></clipPath></defs><path d="M5.06 1.711h13.994c1.892 0 3.416 1.371 3.416 3.073v10.411c0 1.703-1.524 3.074-3.416 3.074H5.305l-3.651 3.346-.01-1.833V4.784c0-1.702 1.523-3.073 3.416-3.073z" fill="#ffffff" stroke="#000000" stroke-width="2" stroke-miterlimit="10"/><path clip-path="url(#clip_frame5_path_1)" d="M-.239 17.176S2.835 15 9.592 15.586c7.074.614 8.237 1.464 15.04-.083v7.155H-.239z" fill="#000000" stroke="#000000" stroke-width=".379499"/><path d="M.045 5.786l17.276-.09" fill="none" stroke="#ffffff" stroke-width="2.6" stroke-dasharray="0,17.276234427675494" stroke-dashoffset="17.276234"/><path d="M-.045 9.607l14.018-.044" fill="none" stroke="#ffffff" stroke-width="2.6" stroke-dasharray="0,14.018069053903252" stroke-dashoffset="14.018069"/><path d="M.045 13.473h11.518" fill="none" stroke="#ffffff" stroke-width="2.6" stroke-dasharray="0,11.518" stroke-dashoffset="11.518"/></g><g transform="translate(144)"><defs><clipPath id="clip_frame6_path_1"><path d="M5.06 1.711h13.994c1.892 0 3.416 1.371 3.416 3.073v10.411c0 1.703-1.524 3.074-3.416 3.074H5.305l-3.651 3.346-.01-1.833V4.784c0-1.702 1.523-3.073 3.416-3.073z"/></clipPath></defs><path d="M5.06 1.711h13.994c1.892 0 3.416 1.371 3.416 3.073v10.411c0 1.703-1.524 3.074-3.416 3.074H5.305l-3.651 3.346-.01-1.833V4.784c0-1.702 1.523-3.073 3.416-3.073z" fill="#ffffff" stroke="#000000" stroke-width="2" stroke-miterlimit="10"/><path clip-path="url(#clip_frame6_path_1)" d="M-.239 14.844s3.074-3.102 9.831-2.266c7.074.875 8.237 2.087 15.04-.119v10.199H-.239z" fill="#000000" stroke="#000000" stroke-width=".379499"/><path d="M.045 5.786l17.276-.09" fill="none" stroke="#ffffff" stroke-width="2.6" stroke-dasharray="0,17.276234427675494" stroke-dashoffset="17.276234"/><path d="M-.045 9.607l14.018-.044" fill="none" stroke="#ffffff" stroke-width="2.6" stroke-dasharray="0,14.018069053903252" stroke-dashoffset="14.018069"/><path d="M.045 13.473h11.518" fill="none" stroke="#ffffff" stroke-width="2.6" stroke-dasharray="0,11.518" stroke-dashoffset="11.518"/></g><g transform="translate(168)"><defs><clipPath id="clip_frame7_path_1"><path d="M5.06 1.711h13.994c1.892 0 3.416 1.371 3.416 3.073v10.411c0 1.703-1.524 3.074-3.416 3.074H5.305l-3.651 3.346-.01-1.833V4.784c0-1.702 1.523-3.073 3.416-3.073z"/></clipPath></defs><path d="M5.06 1.711h13.994c1.892 0 3.416 1.371 3.416 3.073v10.411c0 1.703-1.524 3.074-3.416 3.074H5.305l-3.651 3.346-.01-1.833V4.784c0-1.702 1.523-3.073 3.416-3.073z" fill="#ffffff" stroke="#000000" stroke-width="2" stroke-miterlimit="10"/><path clip-path="url(#clip_frame7_path_1)" d="M-.239 12.312S2.835 8.204 9.592 9.31c7.074 1.159 8.237 2.764 15.04-.157v13.505H-.239z" fill="#000000" stroke="#000000" stroke-width=".379499"/><path d="M.045 5.786l17.276-.09" fill="none" stroke="#ffffff" stroke-width="2.6" stroke-dasharray="0,17.276234427675494" stroke-dashoffset="17.276234"/><path d="M-.045 9.607l14.018-.044" fill="none" stroke="#ffffff" stroke-width="2.6" stroke-dasharray="0,14.018069053903252" stroke-dashoffset="14.018069"/><path d="M.045 13.473h11.518" fill="none" stroke="#ffffff" stroke-width="2.6" stroke-dasharray="0,11.518" stroke-dashoffset="11.518"/></g><g transform="translate(192)"><defs><clipPath id="clip_frame8_path_1"><path d="M5.06 1.711h13.994c1.892 0 3.416 1.371 3.416 3.073v10.411c0 1.703-1.524 3.074-3.416 3.074H5.305l-3.651 3.346-.01-1.833V4.784c0-1.702 1.523-3.073 3.416-3.073z"/></clipPath></defs><path d="M5.06 1.711h13.994c1.892 0 3.416 1.371 3.416 3.073v10.411c0 1.703-1.524 3.074-3.416 3.074H5.305l-3.651 3.346-.01-1.833V4.784c0-1.702 1.523-3.073 3.416-3.073z" fill="#ffffff" stroke="#000000" stroke-width="2" stroke-miterlimit="10"/><path clip-path="url(#clip_frame8_path_1)" d="M-.239 10.02s3.074-5.017 9.831-3.666c7.074 1.416 8.237 3.377 15.04-.192v16.496H-.239z" fill="#000000" stroke="#000000" stroke-width=".379499"/><path d="M.045 5.786l17.276-.09" fill="none" stroke="#ffffff" stroke-width="2.6" stroke-dasharray="0,17.276234427675494" stroke-dashoffset="17.276234"/><path d="M-.045 9.607l14.018-.044" fill="none" stroke="#ffffff" stroke-width="2.6" stroke-dasharray="0,14.018069053903252" stroke-dashoffset="14.018069"/><path d="M.045 13.473h11.518" fill="none" stroke="#ffffff" stroke-width="2.6" stroke-dasharray="0,11.518" stroke-dashoffset="11.518"/></g><g transform="translate(216)"><defs><clipPath id="clip_frame9_path_1"><path d="M5.06 1.711h13.994c1.892 0 3.416 1.371 3.416 3.073v10.411c0 1.703-1.524 3.074-3.416 3.074H5.305l-3.651 3.346-.01-1.833V4.784c0-1.702 1.523-3.073 3.416-3.073z"/></clipPath></defs><path d="M5.06 1.711h13.994c1.892 0 3.416 1.371 3.416 3.073v10.411c0 1.703-1.524 3.074-3.416 3.074H5.305l-3.651 3.346-.01-1.833V4.784c0-1.702 1.523-3.073 3.416-3.073z" fill="#ffffff" stroke="#000000" stroke-width="2" stroke-miterlimit="10"/><path clip-path="url(#clip_frame9_path_1)" d="M-.239 8.136S2.835 2.37 9.592 3.923c7.074 1.626 8.237 3.88 15.04-.221v18.956H-.239z" fill="#000000" stroke="#000000" stroke-width=".379499"/><path d="M.045 5.786l17.276-.09" fill="none" stroke="#ffffff" stroke-width="2.6" stroke-dasharray="0,17.276234427675494" stroke-dashoffset="17.276234"/><path d="M-.045 9.607l14.018-.044" fill="none" stroke="#ffffff" stroke-width="2.6" stroke-dasharray="0,14.018069053903252" stroke-dashoffset="14.018069"/><path d="M.045 13.473h11.518" fill="none" stroke="#ffffff" stroke-width="2.6" stroke-dasharray="0,11.518" stroke-dashoffset="11.518"/></g><g transform="translate(240)"><defs><clipPath id="clip_frame10_path_1"><path d="M5.06 1.711h13.994c1.892 0 3.416 1.371 3.416 3.073v10.411c0 1.703-1.524 3.074-3.416 3.074H5.305l-3.651 3.346-.01-1.833V4.784c0-1.702 1.523-3.073 3.416-3.073z"/></clipPath></defs><path d="M5.06 1.711h13.994c1.892 0 3.416 1.371 3.416 3.073v10.411c0 1.703-1.524 3.074-3.416 3.074H5.305l-3.651 3.346-.01-1.833V4.784c0-1.702 1.523-3.073 3.416-3.073z" fill="#ffffff" stroke="#000000" stroke-width="2" stroke-miterlimit="10"/><path clip-path="url(#clip_frame10_path_1)" d="M-.239 6.63S2.835.266 9.592 1.981c7.074 1.794 8.237 4.282 15.04-.244v20.921H-.239z" fill="#000000" stroke="#000000" stroke-width=".379499"/><path d="M.045 5.786l17.276-.09" fill="none" stroke="#ffffff" stroke-width="2.6" stroke-dasharray="0,17.276234427675494" stroke-dashoffset="17.276234"/><path d="M-.045 9.607l14.018-.044" fill="none" stroke="#ffffff" stroke-width="2.6" stroke-dasharray="0,14.018069053903252" stroke-dashoffset="14.018069"/><path d="M.045 13.473h11.518" fill="none" stroke="#ffffff" stroke-width="2.6" stroke-dasharray="0,11.518" stroke-dashoffset="11.518"/></g><g transform="translate(264)"><defs><clipPath id="clip_frame11_path_1"><path d="M5.06 1.711h13.994c1.892 0 3.416 1.371 3.416 3.073v10.411c0 1.703-1.524 3.074-3.416 3.074H5.305l-3.651 3.346-.01-1.833V4.784c0-1.702 1.523-3.073 3.416-3.073z"/></clipPath></defs><path d="M5.06 1.711h13.994c1.892 0 3.416 1.371 3.416 3.073v10.411c0 1.703-1.524 3.074-3.416 3.074H5.305l-3.651 3.346-.01-1.833V4.784c0-1.702 1.523-3.073 3.416-3.073z" fill="#ffffff" stroke="#000000" stroke-width="2" stroke-miterlimit="10"/><path clip-path="url(#clip_frame11_path_1)" d="M-.239 5.431S2.835-1.408 9.592.434c7.074 1.929 8.237 4.603 15.04-.262v22.486H-.239z" fill="#000000" stroke="#000000" stroke-width=".379499"/><path d="M.045 5.786l17.276-.09" fill="none" stroke="#ffffff" stroke-width="2.6" stroke-dasharray="0,17.276234427675494" stroke-dashoffset="17.276234"/><path d="M-.045 9.607l14.018-.044" fill="none" stroke="#ffffff" stroke-width="2.6" stroke-dasharray="0,14.018069053903252" stroke-dashoffset="14.018069"/><path d="M.045 13.473h11.518" fill="none" stroke="#ffffff" stroke-width="2.6" stroke-dasharray="0,11.518" stroke-dashoffset="11.518"/></g><g transform="translate(288)"><defs><clipPath id="clip_frame12_path_1"><path d="M5.06 1.711h13.994c1.892 0 3.416 1.371 3.416 3.073v10.411c0 1.703-1.524 3.074-3.416 3.074H5.305l-3.651 3.346-.01-1.833V4.784c0-1.702 1.523-3.073 3.416-3.073z"/></clipPath></defs><path d="M5.06 1.711h13.994c1.892 0 3.416 1.371 3.416 3.073v10.411c0 1.703-1.524 3.074-3.416 3.074H5.305l-3.651 3.346-.01-1.833V4.784c0-1.702 1.523-3.073 3.416-3.073z" fill="#ffffff" stroke="#000000" stroke-width="2" stroke-miterlimit="10"/><path clip-path="url(#clip_frame12_path_1)" d="M-.239 4.475S2.835-2.745 9.592-.8c7.074 2.036 8.237 4.858 15.04-.276v23.734H-.239z" fill="#000000" stroke="#000000" stroke-width=".379499"/><path d="M.045 5.786l17.276-.09" fill="none" stroke="#ffffff" stroke-width="2.6" stroke-dasharray="0,17.276234427675494" stroke-dashoffset="17.276234"/><path d="M-.045 9.607l14.018-.044" fill="none" stroke="#ffffff" stroke-width="2.6" stroke-dasharray="0,14.018069053903252" stroke-dashoffset="14.018069"/><path d="M.045 13.473h11.518" fill="none" stroke="#ffffff" stroke-width="2.6" stroke-dasharray="0,11.518" stroke-dashoffset="11.518"/></g><g transform="translate(312)"><defs><clipPath id="clip_frame13_path_1"><path d="M5.06 1.711h13.994c1.892 0 3.416 1.371 3.416 3.073v10.411c0 1.703-1.524 3.074-3.416 3.074H5.305l-3.651 3.346-.01-1.833V4.784c0-1.702 1.523-3.073 3.416-3.073z"/></clipPath></defs><path d="M5.06 1.711h13.994c1.892 0 3.416 1.371 3.416 3.073v10.411c0 1.703-1.524 3.074-3.416 3.074H5.305l-3.651 3.346-.01-1.833V4.784c0-1.702 1.523-3.073 3.416-3.073z" fill="#ffffff" stroke="#000000" stroke-width="2" stroke-miterlimit="10"/><path clip-path="url(#clip_frame13_path_1)" d="M-.239 3.71s3.074-7.523 9.831-5.497c7.074 2.122 8.237 5.063 15.04-.288v24.733H-.239z" fill="#000000" stroke="#000000" stroke-width=".379499"/><path d="M.045 5.786l17.276-.09" fill="none" stroke="#ffffff" stroke-width="2.6" stroke-dasharray="0,17.276234427675494" stroke-dashoffset="17.276234"/><path d="M-.045 9.607l14.018-.044" fill="none" stroke="#ffffff" stroke-width="2.6" stroke-dasharray="0,14.018069053903252" stroke-dashoffset="14.018069"/><path d="M.045 13.473h11.518" fill="none" stroke="#ffffff" stroke-width="2.6" stroke-dasharray="0,11.518" stroke-dashoffset="11.518"/></g><g transform="translate(336)"><defs><clipPath id="clip_frame14_path_1"><path d="M5.06 1.711h13.994c1.892 0 3.416 1.371 3.416 3.073v10.411c0 1.703-1.524 3.074-3.416 3.074H5.305l-3.651 3.346-.01-1.833V4.784c0-1.702 1.523-3.073 3.416-3.073z"/></clipPath></defs><path d="M5.06 1.711h13.994c1.892 0 3.416 1.371 3.416 3.073v10.411c0 1.703-1.524 3.074-3.416 3.074H5.305l-3.651 3.346-.01-1.833V4.784c0-1.702 1.523-3.073 3.416-3.073z" fill="#ffffff" stroke="#000000" stroke-width="2" stroke-miterlimit="10"/><path clip-path="url(#clip_frame14_path_1)" d="M-.239 3.1s3.074-7.766 9.831-5.674c7.074 2.19 8.237 5.226 15.04-.297v25.529H-.239z" fill="#000000" stroke="#000000" stroke-width=".379499"/><path d="M.045 5.786l17.276-.09" fill="none" stroke="#ffffff" stroke-width="2.6" stroke-dasharray="0,17.276234427675494" stroke-dashoffset="17.276234"/><path d="M-.045 9.607l14.018-.044" fill="none" stroke="#ffffff" stroke-width="2.6" stroke-dasharray="0,14.018069053903252" stroke-dashoffset="14.018069"/><path d="M.045 13.473h11.518" fill="none" stroke="#ffffff" stroke-width="2.6" stroke-dasharray="0,11.518" stroke-dashoffset="11.518"/></g><g transform="translate(360)"><defs><clipPath id="clip_frame15_path_1"><path d="M5.06 1.711h13.994c1.892 0 3.416 1.371 3.416 3.073v10.411c0 1.703-1.524 3.074-3.416 3.074H5.305l-3.651 3.346-.01-1.833V4.784c0-1.702 1.523-3.073 3.416-3.073z"/></clipPath></defs><path d="M5.06 1.711h13.994c1.892 0 3.416 1.371 3.416 3.073v10.411c0 1.703-1.524 3.074-3.416 3.074H5.305l-3.651 3.346-.01-1.833V4.784c0-1.702 1.523-3.073 3.416-3.073z" fill="#ffffff" stroke="#000000" stroke-width="2" stroke-miterlimit="10"/><path clip-path="url(#clip_frame15_path_1)" d="M-.239 2.617S2.835-5.34 9.592-3.197c7.074 2.244 8.237 5.355 15.04-.304v26.159H-.239z" fill="#000000" stroke="#000000" stroke-width=".379499"/><path d="M.045 5.786l17.276-.09" fill="none" stroke="#ffffff" stroke-width="2.6" stroke-dasharray="0,17.276234427675494" stroke-dashoffset="17.276234"/><path d="M-.045 9.607l14.018-.044" fill="none" stroke="#ffffff" stroke-width="2.6" stroke-dasharray="0,14.018069053903252" stroke-dashoffset="14.018069"/><path d="M.045 13.473h11.518" fill="none" stroke="#ffffff" stroke-width="2.6" stroke-dasharray="0,11.518" stroke-dashoffset="11.518"/></g><g transform="translate(384)"><defs><clipPath id="clip_frame16_path_1"><path d="M5.06 1.711h13.994c1.892 0 3.416 1.371 3.416 3.073v10.411c0 1.703-1.524 3.074-3.416 3.074H5.305l-3.651 3.346-.01-1.833V4.784c0-1.702 1.523-3.073 3.416-3.073z"/></clipPath></defs><path d="M5.06 1.711h13.994c1.892 0 3.416 1.371 3.416 3.073v10.411c0 1.703-1.524 3.074-3.416 3.074H5.305l-3.651 3.346-.01-1.833V4.784c0-1.702 1.523-3.073 3.416-3.073z" fill="#ffffff" stroke="#000000" stroke-width="2" stroke-miterlimit="10"/><path clip-path="url(#clip_frame16_path_1)" d="M-.239 2.24s3.074-8.106 9.831-5.922c7.074 2.286 8.237 5.455 15.04-.311v26.651H-.239z" fill="#000000" stroke="#000000" stroke-width=".379499"/><path d="M.045 5.786l17.276-.09" fill="none" stroke="#ffffff" stroke-width="2.6" stroke-dasharray="0,17.276234427675494" stroke-dashoffset="17.276234"/><path d="M-.045 9.607l14.018-.044" fill="none" stroke="#ffffff" stroke-width="2.6" stroke-dasharray="0,14.018069053903252" stroke-dashoffset="14.018069"/><path d="M.045 13.473h11.518" fill="none" stroke="#ffffff" stroke-width="2.6" stroke-dasharray="0,11.518" stroke-dashoffset="11.518"/></g><g transform="translate(408)"><defs><clipPath id="clip_frame17_path_1"><path d="M5.06 1.711h13.994c1.892 0 3.416 1.371 3.416 3.073v10.411c0 1.703-1.524 3.074-3.416 3.074H5.305l-3.651 3.346-.01-1.833V4.784c0-1.702 1.523-3.073 3.416-3.073z"/></clipPath></defs><path d="M5.06 1.711h13.994c1.892 0 3.416 1.371 3.416 3.073v10.411c0 1.703-1.524 3.074-3.416 3.074H5.305l-3.651 3.346-.01-1.833V4.784c0-1.702 1.523-3.073 3.416-3.073z" fill="#ffffff" stroke="#000000" stroke-width="2" stroke-miterlimit="10"/><path clip-path="url(#clip_frame17_path_1)" d="M-.239 1.954s3.074-8.22 9.831-6.006c7.074 2.319 8.237 5.532 15.04-.315v27.025H-.239z" fill="#000000" stroke="#000000" stroke-width=".379499"/><path d="M.045 5.786l17.276-.09" fill="none" stroke="#ffffff" stroke-width="2.6" stroke-dasharray="0,17.276234427675494" stroke-dashoffset="17.276234"/><path d="M-.045 9.607l14.018-.044" fill="none" stroke="#ffffff" stroke-width="2.6" stroke-dasharray="0,14.018069053903252" stroke-dashoffset="14.018069"/><path d="M.045 13.473h11.518" fill="none" stroke="#ffffff" stroke-width="2.6" stroke-dasharray="0,11.518" stroke-dashoffset="11.518"/></g><g transform="translate(432)"><defs><clipPath id="clip_frame18_path_1"><path d="M5.06 1.711h13.994c1.892 0 3.416 1.371 3.416 3.073v10.411c0 1.703-1.524 3.074-3.416 3.074H5.305l-3.651 3.346-.01-1.833V4.784c0-1.702 1.523-3.073 3.416-3.073z"/></clipPath></defs><path d="M5.06 1.711h13.994c1.892 0 3.416 1.371 3.416 3.073v10.411c0 1.703-1.524 3.074-3.416 3.074H5.305l-3.651 3.346-.01-1.833V4.784c0-1.702 1.523-3.073 3.416-3.073z" fill="#ffffff" stroke="#000000" stroke-width="2" stroke-miterlimit="10"/><path clip-path="url(#clip_frame18_path_1)" d="M-.239 1.745s3.074-8.303 9.831-6.066c7.074 2.341 8.237 5.587 15.04-.318v27.297H-.239z" fill="#000000" stroke="#000000" stroke-width=".379499"/><path d="M.045 5.786l17.276-.09" fill="none" stroke="#ffffff" stroke-width="2.6" stroke-dasharray="0,17.276234427675494" stroke-dashoffset="17.276234"/><path d="M-.045 9.607l14.018-.044" fill="none" stroke="#ffffff" stroke-width="2.6" stroke-dasharray="0,14.018069053903252" stroke-dashoffset="14.018069"/><path d="M.045 13.473h11.518" fill="none" stroke="#ffffff" stroke-width="2.6" stroke-dasharray="0,11.518" stroke-dashoffset="11.518"/></g><g transform="translate(456)"><defs><clipPath id="clip_frame19_path_1"><path d="M5.06 1.711h13.994c1.892 0 3.416 1.371 3.416 3.073v10.411c0 1.703-1.524 3.074-3.416 3.074H5.305l-3.651 3.346-.01-1.833V4.784c0-1.702 1.523-3.073 3.416-3.073z"/></clipPath></defs><path d="M5.06 1.711h13.994c1.892 0 3.416 1.371 3.416 3.073v10.411c0 1.703-1.524 3.074-3.416 3.074H5.305l-3.651 3.346-.01-1.833V4.784c0-1.702 1.523-3.073 3.416-3.073z" fill="#ffffff" stroke="#000000" stroke-width="2" stroke-miterlimit="10"/><path clip-path="url(#clip_frame19_path_1)" d="M-.239 1.604s3.074-8.36 9.831-6.108c7.074 2.358 8.237 5.625 15.04-.32v27.482H-.239z" fill="#000000" stroke="#000000" stroke-width=".379499"/><path d="M.045 5.786l17.276-.09" fill="none" stroke="#ffffff" stroke-width="2.6" stroke-dasharray="0,17.276234427675494" stroke-dashoffset="17.276234"/><path d="M-.045 9.607l14.018-.044" fill="none" stroke="#ffffff" stroke-width="2.6" stroke-dasharray="0,14.018069053903252" stroke-dashoffset="14.018069"/><path d="M.045 13.473h11.518" fill="none" stroke="#ffffff" stroke-width="2.6" stroke-dasharray="0,11.518" stroke-dashoffset="11.518"/></g><g transform="translate(480)"><defs><clipPath id="clip_frame20_path_1"><path d="M5.06 1.711h13.994c1.892 0 3.416 1.371 3.416 3.073v10.411c0 1.703-1.524 3.074-3.416 3.074H5.305l-3.651 3.346-.01-1.833V4.784c0-1.702 1.523-3.073 3.416-3.073z"/></clipPath></defs><path d="M5.06 1.711h13.994c1.892 0 3.416 1.371 3.416 3.073v10.411c0 1.703-1.524 3.074-3.416 3.074H5.305l-3.651 3.346-.01-1.833V4.784c0-1.702 1.523-3.073 3.416-3.073z" fill="#ffffff" stroke="#000000" stroke-width="2" stroke-miterlimit="10"/><path clip-path="url(#clip_frame20_path_1)" d="M-.239 1.521S2.835-6.871 9.592-4.61c7.074 2.367 8.237 5.647 15.04-.321v27.589H-.239z" fill="#000000" stroke="#000000" stroke-width=".379499"/><path d="M.045 5.786l17.276-.09" fill="none" stroke="#ffffff" stroke-width="2.6" stroke-dasharray="0,17.276234427675494" stroke-dashoffset="17.276234"/><path d="M-.045 9.607l14.018-.044" fill="none" stroke="#ffffff" stroke-width="2.6" stroke-dasharray="0,14.018069053903252" stroke-dashoffset="14.018069"/><path d="M.045 13.473h11.518" fill="none" stroke="#ffffff" stroke-width="2.6" stroke-dasharray="0,11.518" stroke-dashoffset="11.518"/></g><g transform="translate(504)"><defs><clipPath id="clip_frame21_path_1"><path d="M5.06 1.711h13.994c1.892 0 3.416 1.371 3.416 3.073v10.411c0 1.703-1.524 3.074-3.416 3.074H5.305l-3.651 3.346-.01-1.833V4.784c0-1.702 1.523-3.073 3.416-3.073z"/></clipPath></defs><path d="M5.06 1.711h13.994c1.892 0 3.416 1.371 3.416 3.073v10.411c0 1.703-1.524 3.074-3.416 3.074H5.305l-3.651 3.346-.01-1.833V4.784c0-1.702 1.523-3.073 3.416-3.073z" fill="#ffffff" stroke="#000000" stroke-width="2" stroke-miterlimit="10"/><path clip-path="url(#clip_frame21_path_1)" d="M-.239 1.491s3.074-8.404 9.831-6.14c7.074 2.37 8.237 5.655 15.04-.322v27.629H-.239z" fill="#000000" stroke="#000000" stroke-width=".379499"/><path d="M.045 5.786l17.276-.09" fill="none" stroke="#ffffff" stroke-width="2.6" stroke-dasharray="0,17.276234427675494" stroke-dashoffset="17.276234"/><path d="M-.045 9.607l14.018-.044" fill="none" stroke="#ffffff" stroke-width="2.6" stroke-dasharray="0,14.018069053903252" stroke-dashoffset="14.018069"/><path d="M.045 13.473h11.518" fill="none" stroke="#ffffff" stroke-width="2.6" stroke-dasharray="0,11.518" stroke-dashoffset="11.518"/></g><g transform="translate(528)"><defs><clipPath id="clip_frame22_path_1"><path d="M5.06 1.711h13.994c1.892 0 3.416 1.371 3.416 3.073v10.411c0 1.703-1.524 3.074-3.416 3.074H5.305l-3.651 3.346-.01-1.833V4.784c0-1.702 1.523-3.073 3.416-3.073z"/></clipPath></defs><path d="M5.06 1.711h13.994c1.892 0 3.416 1.371 3.416 3.073v10.411c0 1.703-1.524 3.074-3.416 3.074H5.305l-3.651 3.346-.01-1.833V4.784c0-1.702 1.523-3.073 3.416-3.073z" fill="#ffffff" stroke="#000000" stroke-width="2" stroke-miterlimit="10"/><path clip-path="url(#clip_frame22_path_1)" d="M-.239 1.491s3.074-8.404 9.831-6.14c7.074 2.37 8.237 5.655 15.04-.322v27.629H-.239z" fill="#000000" stroke="#000000" stroke-width=".379499"/><path d="M.045 5.786l17.276-.09" fill="none" stroke="#ffffff" stroke-width="2.6" stroke-dasharray="0.13729848076389556,17.138935946911598" stroke-dashoffset="17.276234"/><path d="M-.045 9.607l14.018-.044" fill="none" stroke="#ffffff" stroke-width="2.6" stroke-dasharray="0,14.018069053903252" stroke-dashoffset="14.018069"/><path d="M.045 13.473h11.518" fill="none" stroke="#ffffff" stroke-width="2.6" stroke-dasharray="0,11.518" stroke-dashoffset="11.518"/></g><g transform="translate(552)"><defs><clipPath id="clip_frame23_path_1"><path d="M5.06 1.711h13.994c1.892 0 3.416 1.371 3.416 3.073v10.411c0 1.703-1.524 3.074-3.416 3.074H5.305l-3.651 3.346-.01-1.833V4.784c0-1.702 1.523-3.073 3.416-3.073z"/></clipPath></defs><path d="M5.06 1.711h13.994c1.892 0 3.416 1.371 3.416 3.073v10.411c0 1.703-1.524 3.074-3.416 3.074H5.305l-3.651 3.346-.01-1.833V4.784c0-1.702 1.523-3.073 3.416-3.073z" fill="#ffffff" stroke="#000000" stroke-width="2" stroke-miterlimit="10"/><path clip-path="url(#clip_frame23_path_1)" d="M-.239 1.491s3.074-8.404 9.831-6.14c7.074 2.37 8.237 5.655 15.04-.322v27.629H-.239z" fill="#000000" stroke="#000000" stroke-width=".379499"/><path d="M.045 5.786l17.276-.09" fill="none" stroke="#ffffff" stroke-width="2.6" stroke-dasharray="0.7346678966764811,16.541566530999013" stroke-dashoffset="17.276234"/><path d="M-.045 9.607l14.018-.044" fill="none" stroke="#ffffff" stroke-width="2.6" stroke-dasharray="0,14.018069053903252" stroke-dashoffset="14.018069"/><path d="M.045 13.473h11.518" fill="none" stroke="#ffffff" stroke-width="2.6" stroke-dasharray="0,11.518" stroke-dashoffset="11.518"/></g><g transform="translate(576)"><defs><clipPath id="clip_frame24_path_1"><path d="M5.06 1.711h13.994c1.892 0 3.416 1.371 3.416 3.073v10.411c0 1.703-1.524 3.074-3.416 3.074H5.305l-3.651 3.346-.01-1.833V4.784c0-1.702 1.523-3.073 3.416-3.073z"/></clipPath></defs><path d="M5.06 1.711h13.994c1.892 0 3.416 1.371 3.416 3.073v10.411c0 1.703-1.524 3.074-3.416 3.074H5.305l-3.651 3.346-.01-1.833V4.784c0-1.702 1.523-3.073 3.416-3.073z" fill="#ffffff" stroke="#000000" stroke-width="2" stroke-miterlimit="10"/><path clip-path="url(#clip_frame24_path_1)" d="M-.239 1.491s3.074-8.404 9.831-6.14c7.074 2.37 8.237 5.655 15.04-.322v27.629H-.239z" fill="#000000" stroke="#000000" stroke-width=".379499"/><path d="M.045 5.786l17.276-.09" fill="none" stroke="#ffffff" stroke-width="2.6" stroke-dasharray="2.0530237568541905,15.223210670821302" stroke-dashoffset="17.276234"/><path d="M-.045 9.607l14.018-.044" fill="none" stroke="#ffffff" stroke-width="2.6" stroke-dasharray="0,14.018069053903252" stroke-dashoffset="14.018069"/><path d="M.045 13.473h11.518" fill="none" stroke="#ffffff" stroke-width="2.6" stroke-dasharray="0,11.518" stroke-dashoffset="11.518"/></g><g transform="translate(600)"><defs><clipPath id="clip_frame25_path_1"><path d="M5.06 1.711h13.994c1.892 0 3.416 1.371 3.416 3.073v10.411c0 1.703-1.524 3.074-3.416 3.074H5.305l-3.651 3.346-.01-1.833V4.784c0-1.702 1.523-3.073 3.416-3.073z"/></clipPath></defs><path d="M5.06 1.711h13.994c1.892 0 3.416 1.371 3.416 3.073v10.411c0 1.703-1.524 3.074-3.416 3.074H5.305l-3.651 3.346-.01-1.833V4.784c0-1.702 1.523-3.073 3.416-3.073z" fill="#ffffff" stroke="#000000" stroke-width="2" stroke-miterlimit="10"/><path clip-path="url(#clip_frame25_path_1)" d="M-.239 1.491s3.074-8.404 9.831-6.14c7.074 2.37 8.237 5.655 15.04-.322v27.629H-.239z" fill="#000000" stroke="#000000" stroke-width=".379499"/><path d="M.045 5.786l17.276-.09" fill="none" stroke="#ffffff" stroke-width="2.6" stroke-dasharray="4.381916352434501,12.894318075240994" stroke-dashoffset="17.276234"/><path d="M-.045 9.607l14.018-.044" fill="none" stroke="#ffffff" stroke-width="2.6" stroke-dasharray="0,14.018069053903252" stroke-dashoffset="14.018069"/><path d="M.045 13.473h11.518" fill="none" stroke="#ffffff" stroke-width="2.6" stroke-dasharray="0,11.518" stroke-dashoffset="11.518"/></g><g transform="translate(624)"><defs><clipPath id="clip_frame26_path_1"><path d="M5.06 1.711h13.994c1.892 0 3.416 1.371 3.416 3.073v10.411c0 1.703-1.524 3.074-3.416 3.074H5.305l-3.651 3.346-.01-1.833V4.784c0-1.702 1.523-3.073 3.416-3.073z"/></clipPath></defs><path d="M5.06 1.711h13.994c1.892 0 3.416 1.371 3.416 3.073v10.411c0 1.703-1.524 3.074-3.416 3.074H5.305l-3.651 3.346-.01-1.833V4.784c0-1.702 1.523-3.073 3.416-3.073z" fill="#ffffff" stroke="#000000" stroke-width="2" stroke-miterlimit="10"/><path clip-path="url(#clip_frame26_path_1)" d="M-.239 1.491s3.074-8.404 9.831-6.14c7.074 2.37 8.237 5.655 15.04-.322v27.629H-.239z" fill="#000000" stroke="#000000" stroke-width=".379499"/><path d="M.045 5.786l17.276-.09" fill="none" stroke="#ffffff" stroke-width="2.6" stroke-dasharray="7.438589927952391,9.837644499723103" stroke-dashoffset="17.276234"/><path d="M-.045 9.607l14.018-.044" fill="none" stroke="#ffffff" stroke-width="2.6" stroke-dasharray="0,14.018069053903252" stroke-dashoffset="14.018069"/><path d="M.045 13.473h11.518" fill="none" stroke="#ffffff" stroke-width="2.6" stroke-dasharray="0,11.518" stroke-dashoffset="11.518"/></g><g transform="translate(648)"><defs><clipPath id="clip_frame27_path_1"><path d="M5.06 1.711h13.994c1.892 0 3.416 1.371 3.416 3.073v10.411c0 1.703-1.524 3.074-3.416 3.074H5.305l-3.651 3.346-.01-1.833V4.784c0-1.702 1.523-3.073 3.416-3.073z"/></clipPath></defs><path d="M5.06 1.711h13.994c1.892 0 3.416 1.371 3.416 3.073v10.411c0 1.703-1.524 3.074-3.416 3.074H5.305l-3.651 3.346-.01-1.833V4.784c0-1.702 1.523-3.073 3.416-3.073z" fill="#ffffff" stroke="#000000" stroke-width="2" stroke-miterlimit="10"/><path clip-path="url(#clip_frame27_path_1)" d="M-.239 1.491s3.074-8.404 9.831-6.14c7.074 2.37 8.237 5.655 15.04-.322v27.629H-.239z" fill="#000000" stroke="#000000" stroke-width=".379499"/><path d="M.045 5.786l17.276-.09" fill="none" stroke="#ffffff" stroke-width="2.6" stroke-dasharray="10.224494115195135,7.0517403124803595" stroke-dashoffset="17.276234"/><path d="M-.045 9.607l14.018-.044" fill="none" stroke="#ffffff" stroke-width="2.6" stroke-dasharray="0,14.018069053903252" stroke-dashoffset="14.018069"/><path d="M.045 13.473h11.518" fill="none" stroke="#ffffff" stroke-width="2.6" stroke-dasharray="0,11.518" stroke-dashoffset="11.518"/></g><g transform="translate(672)"><defs><clipPath id="clip_frame28_path_1"><path d="M5.06 1.711h13.994c1.892 0 3.416 1.371 3.416 3.073v10.411c0 1.703-1.524 3.074-3.416 3.074H5.305l-3.651 3.346-.01-1.833V4.784c0-1.702 1.523-3.073 3.416-3.073z"/></clipPath></defs><path d="M5.06 1.711h13.994c1.892 0 3.416 1.371 3.416 3.073v10.411c0 1.703-1.524 3.074-3.416 3.074H5.305l-3.651 3.346-.01-1.833V4.784c0-1.702 1.523-3.073 3.416-3.073z" fill="#ffffff" stroke="#000000" stroke-width="2" stroke-miterlimit="10"/><path clip-path="url(#clip_frame28_path_1)" d="M-.239 1.491s3.074-8.404 9.831-6.14c7.074 2.37 8.237 5.655 15.04-.322v27.629H-.239z" fill="#000000" stroke="#000000" stroke-width=".379499"/><path d="M.045 5.786l17.276-.09" fill="none" stroke="#ffffff" stroke-width="2.6" stroke-dasharray="12.326788977956902,4.949445449718591" stroke-dashoffset="17.276234"/><path d="M-.045 9.607l14.018-.044" fill="none" stroke="#ffffff" stroke-width="2.6" stroke-dasharray="0,14.018069053903252" stroke-dashoffset="14.018069"/><path d="M.045 13.473h11.518" fill="none" stroke="#ffffff" stroke-width="2.6" stroke-dasharray="0,11.518" stroke-dashoffset="11.518"/></g><g transform="translate(696)"><defs><clipPath id="clip_frame29_path_1"><path d="M5.06 1.711h13.994c1.892 0 3.416 1.371 3.416 3.073v10.411c0 1.703-1.524 3.074-3.416 3.074H5.305l-3.651 3.346-.01-1.833V4.784c0-1.702 1.523-3.073 3.416-3.073z"/></clipPath></defs><path d="M5.06 1.711h13.994c1.892 0 3.416 1.371 3.416 3.073v10.411c0 1.703-1.524 3.074-3.416 3.074H5.305l-3.651 3.346-.01-1.833V4.784c0-1.702 1.523-3.073 3.416-3.073z" fill="#ffffff" stroke="#000000" stroke-width="2" stroke-miterlimit="10"/><path clip-path="url(#clip_frame29_path_1)" d="M-.239 1.491s3.074-8.404 9.831-6.14c7.074 2.37 8.237 5.655 15.04-.322v27.629H-.239z" fill="#000000" stroke="#000000" stroke-width=".379499"/><path d="M.045 5.786l17.276-.09" fill="none" stroke="#ffffff" stroke-width="2.6" stroke-dasharray="13.856194072803998,3.420040354871496" stroke-dashoffset="17.276234"/><path d="M-.045 9.607l14.018-.044" fill="none" stroke="#ffffff" stroke-width="2.6" stroke-dasharray="0.014932370424641569,14.00313668347861" stroke-dashoffset="14.018069"/><path d="M.045 13.473h11.518" fill="none" stroke="#ffffff" stroke-width="2.6" stroke-dasharray="0,11.518" stroke-dashoffset="11.518"/></g><g transform="translate(720)"><defs><clipPath id="clip_frame30_path_1"><path d="M5.06 1.711h13.994c1.892 0 3.416 1.371 3.416 3.073v10.411c0 1.703-1.524 3.074-3.416 3.074H5.305l-3.651 3.346-.01-1.833V4.784c0-1.702 1.523-3.073 3.416-3.073z"/></clipPath></defs><path d="M5.06 1.711h13.994c1.892 0 3.416 1.371 3.416 3.073v10.411c0 1.703-1.524 3.074-3.416 3.074H5.305l-3.651 3.346-.01-1.833V4.784c0-1.702 1.523-3.073 3.416-3.073z" fill="#ffffff" stroke="#000000" stroke-width="2" stroke-miterlimit="10"/><path clip-path="url(#clip_frame30_path_1)" d="M-.239 1.491s3.074-8.404 9.831-6.14c7.074 2.37 8.237 5.655 15.04-.322v27.629H-.239z" fill="#000000" stroke="#000000" stroke-width=".379499"/><path d="M.045 5.786l17.276-.09" fill="none" stroke="#ffffff" stroke-width="2.6" stroke-dasharray="14.971669410124887,2.3045650175506056" stroke-dashoffset="17.276234"/><path d="M-.045 9.607l14.018-.044" fill="none" stroke="#ffffff" stroke-width="2.6" stroke-dasharray="0.27564005201782305,13.742429001885428" stroke-dashoffset="14.018069"/><path d="M.045 13.473h11.518" fill="none" stroke="#ffffff" stroke-width="2.6" stroke-dasharray="0,11.518" stroke-dashoffset="11.518"/></g><g transform="translate(744)"><defs><clipPath id="clip_frame31_path_1"><path d="M5.06 1.711h13.994c1.892 0 3.416 1.371 3.416 3.073v10.411c0 1.703-1.524 3.074-3.416 3.074H5.305l-3.651 3.346-.01-1.833V4.784c0-1.702 1.523-3.073 3.416-3.073z"/></clipPath></defs><path d="M5.06 1.711h13.994c1.892 0 3.416 1.371 3.416 3.073v10.411c0 1.703-1.524 3.074-3.416 3.074H5.305l-3.651 3.346-.01-1.833V4.784c0-1.702 1.523-3.073 3.416-3.073z" fill="#ffffff" stroke="#000000" stroke-width="2" stroke-miterlimit="10"/><path clip-path="url(#clip_frame31_path_1)" d="M-.239 1.491s3.074-8.404 9.831-6.14c7.074 2.37 8.237 5.655 15.04-.322v27.629H-.239z" fill="#000000" stroke="#000000" stroke-width=".379499"/><path d="M.045 5.786l17.276-.09" fill="none" stroke="#ffffff" stroke-width="2.6" stroke-dasharray="15.786131672611074,1.490102755064421" stroke-dashoffset="17.276234"/><path d="M-.045 9.607l14.018-.044" fill="none" stroke="#ffffff" stroke-width="2.6" stroke-dasharray="0.9955336475862695,13.022535406316983" stroke-dashoffset="14.018069"/><path d="M.045 13.473h11.518" fill="none" stroke="#ffffff" stroke-width="2.6" stroke-dasharray="0,11.518" stroke-dashoffset="11.518"/></g><g transform="translate(768)"><defs><clipPath id="clip_frame32_path_1"><path d="M5.06 1.711h13.994c1.892 0 3.416 1.371 3.416 3.073v10.411c0 1.703-1.524 3.074-3.416 3.074H5.305l-3.651 3.346-.01-1.833V4.784c0-1.702 1.523-3.073 3.416-3.073z"/></clipPath></defs><path d="M5.06 1.711h13.994c1.892 0 3.416 1.371 3.416 3.073v10.411c0 1.703-1.524 3.074-3.416 3.074H5.305l-3.651 3.346-.01-1.833V4.784c0-1.702 1.523-3.073 3.416-3.073z" fill="#ffffff" stroke="#000000" stroke-width="2" stroke-miterlimit="10"/><path clip-path="url(#clip_frame32_path_1)" d="M-.239 1.491s3.074-8.404 9.831-6.14c7.074 2.37 8.237 5.655 15.04-.322v27.629H-.239z" fill="#000000" stroke="#000000" stroke-width=".379499"/><path d="M.045 5.786l17.276-.09" fill="none" stroke="#ffffff" stroke-width="2.6" stroke-dasharray="16.37431699388033,0.901917433795163" stroke-dashoffset="17.276234"/><path d="M-.045 9.607l14.018-.044" fill="none" stroke="#ffffff" stroke-width="2.6" stroke-dasharray="2.420001226947681,11.598067826955571" stroke-dashoffset="14.018069"/><path d="M.045 13.473h11.518" fill="none" stroke="#ffffff" stroke-width="2.6" stroke-dasharray="0.0008164299086936002,11.517183570091307" stroke-dashoffset="11.518"/></g><g transform="translate(792)"><defs><clipPath id="clip_frame33_path_1"><path d="M5.06 1.711h13.994c1.892 0 3.416 1.371 3.416 3.073v10.411c0 1.703-1.524 3.074-3.416 3.074H5.305l-3.651 3.346-.01-1.833V4.784c0-1.702 1.523-3.073 3.416-3.073z"/></clipPath></defs><path d="M5.06 1.711h13.994c1.892 0 3.416 1.371 3.416 3.073v10.411c0 1.703-1.524 3.074-3.416 3.074H5.305l-3.651 3.346-.01-1.833V4.784c0-1.702 1.523-3.073 3.416-3.073z" fill="#ffffff" stroke="#000000" stroke-width="2" stroke-miterlimit="10"/><path clip-path="url(#clip_frame33_path_1)" d="M-.239 1.491s3.074-8.404 9.831-6.14c7.074 2.37 8.237 5.655 15.04-.322v27.629H-.239z" fill="#000000" stroke="#000000" stroke-width=".379499"/><path d="M.045 5.786l17.276-.09" fill="none" stroke="#ffffff" stroke-width="2.6" stroke-dasharray="16.78662251779581,0.4896119098796834" stroke-dashoffset="17.276234"/><path d="M-.045 9.607l14.018-.044" fill="none" stroke="#ffffff" stroke-width="2.6" stroke-dasharray="4.661556397667265,9.356512656235987" stroke-dashoffset="14.018069"/><path d="M.045 13.473h11.518" fill="none" stroke="#ffffff" stroke-width="2.6" stroke-dasharray="0.10144438812640456,11.416555611873596" stroke-dashoffset="11.518"/></g><g transform="translate(816)"><defs><clipPath id="clip_frame34_path_1"><path d="M5.06 1.711h13.994c1.892 0 3.416 1.371 3.416 3.073v10.411c0 1.703-1.524 3.074-3.416 3.074H5.305l-3.651 3.346-.01-1.833V4.784c0-1.702 1.523-3.073 3.416-3.073z"/></clipPath></defs><path d="M5.06 1.711h13.994c1.892 0 3.416 1.371 3.416 3.073v10.411c0 1.703-1.524 3.074-3.416 3.074H5.305l-3.651 3.346-.01-1.833V4.784c0-1.702 1.523-3.073 3.416-3.073z" fill="#ffffff" stroke="#000000" stroke-width="2" stroke-miterlimit="10"/><path clip-path="url(#clip_frame34_path_1)" d="M-.239 1.491s3.074-8.404 9.831-6.14c7.074 2.37 8.237 5.655 15.04-.322v27.629H-.239z" fill="#000000" stroke="#000000" stroke-width=".379499"/><path d="M.045 5.786l17.276-.09" fill="none" stroke="#ffffff" stroke-width="2.6" stroke-dasharray="17.058225026045935,0.21800940162955776" stroke-dashoffset="17.276234"/><path d="M-.045 9.607l14.018-.044" fill="none" stroke="#ffffff" stroke-width="2.6" stroke-dasharray="7.131661640905622,6.88640741299763" stroke-dashoffset="14.018069"/><path d="M.045 13.473h11.518" fill="none" stroke="#ffffff" stroke-width="2.6" stroke-dasharray="0.4189534111751947,11.099046588824805" stroke-dashoffset="11.518"/></g><g transform="translate(840)"><defs><clipPath id="clip_frame35_path_1"><path d="M5.06 1.711h13.994c1.892 0 3.416 1.371 3.416 3.073v10.411c0 1.703-1.524 3.074-3.416 3.074H5.305l-3.651 3.346-.01-1.833V4.784c0-1.702 1.523-3.073 3.416-3.073z"/></clipPath></defs><path d="M5.06 1.711h13.994c1.892 0 3.416 1.371 3.416 3.073v10.411c0 1.703-1.524 3.074-3.416 3.074H5.305l-3.651 3.346-.01-1.833V4.784c0-1.702 1.523-3.073 3.416-3.073z" fill="#ffffff" stroke="#000000" stroke-width="2" stroke-miterlimit="10"/><path clip-path="url(#clip_frame35_path_1)" d="M-.239 1.491s3.074-8.404 9.831-6.14c7.074 2.37 8.237 5.655 15.04-.322v27.629H-.239z" fill="#000000" stroke="#000000" stroke-width=".379499"/><path d="M.045 5.786l17.276-.09" fill="none" stroke="#ffffff" stroke-width="2.6" stroke-dasharray="17.21453396215412,0.06170046552137226" stroke-dashoffset="17.276234"/><path d="M-.045 9.607l14.018-.044" fill="none" stroke="#ffffff" stroke-width="2.6" stroke-dasharray="9.141232118803943,4.876836935099309" stroke-dashoffset="14.018069"/><path d="M.045 13.473h11.518" fill="none" stroke="#ffffff" stroke-width="2.6" stroke-dasharray="1.0513643796446055,10.466635620355396" stroke-dashoffset="11.518"/></g><g transform="translate(864)"><defs><clipPath id="clip_frame36_path_1"><path d="M5.06 1.711h13.994c1.892 0 3.416 1.371 3.416 3.073v10.411c0 1.703-1.524 3.074-3.416 3.074H5.305l-3.651 3.346-.01-1.833V4.784c0-1.702 1.523-3.073 3.416-3.073z"/></clipPath></defs><path d="M5.06 1.711h13.994c1.892 0 3.416 1.371 3.416 3.073v10.411c0 1.703-1.524 3.074-3.416 3.074H5.305l-3.651 3.346-.01-1.833V4.784c0-1.702 1.523-3.073 3.416-3.073z" fill="#ffffff" stroke="#000000" stroke-width="2" stroke-miterlimit="10"/><path clip-path="url(#clip_frame36_path_1)" d="M-.239 1.491s3.074-8.404 9.831-6.14c7.074 2.37 8.237 5.655 15.04-.322v27.629H-.239z" fill="#000000" stroke="#000000" stroke-width=".379499"/><path d="M.045 5.786l17.276-.09" fill="none" stroke="#ffffff" stroke-width="2.6" stroke-dasharray="17.27447213409818,0.001762293577313345" stroke-dashoffset="17.276234"/><path d="M-.045 9.607l14.018-.044" fill="none" stroke="#ffffff" stroke-width="2.6" stroke-dasharray="10.617363585787317,3.4007054681159357" stroke-dashoffset="14.018069"/><path d="M.045 13.473h11.518" fill="none" stroke="#ffffff" stroke-width="2.6" stroke-dasharray="2.1240645661575672,9.393935433842433" stroke-dashoffset="11.518"/></g><g transform="translate(888)"><defs><clipPath id="clip_frame37_path_1"><path d="M5.06 1.711h13.994c1.892 0 3.416 1.371 3.416 3.073v10.411c0 1.703-1.524 3.074-3.416 3.074H5.305l-3.651 3.346-.01-1.833V4.784c0-1.702 1.523-3.073 3.416-3.073z"/></clipPath></defs><path d="M5.06 1.711h13.994c1.892 0 3.416 1.371 3.416 3.073v10.411c0 1.703-1.524 3.074-3.416 3.074H5.305l-3.651 3.346-.01-1.833V4.784c0-1.702 1.523-3.073 3.416-3.073z" fill="#ffffff" stroke="#000000" stroke-width="2" stroke-miterlimit="10"/><path clip-path="url(#clip_frame37_path_1)" d="M-.239 1.491s3.074-8.404 9.831-6.14c7.074 2.37 8.237 5.655 15.04-.322v27.629H-.239z" fill="#000000" stroke="#000000" stroke-width=".379499"/><path d="M.045 5.786l17.276-.09" fill="none" stroke="#ffffff" stroke-width="2.6"/><path d="M-.045 9.607l14.018-.044" fill="none" stroke="#ffffff" stroke-width="2.6" stroke-dasharray="11.691243930673721,2.3268251232295305" stroke-dashoffset="14.018069"/><path d="M.045 13.473h11.518" fill="none" stroke="#ffffff" stroke-width="2.6" stroke-dasharray="3.6664935469254836,7.851506453074517" stroke-dashoffset="11.518"/></g><g transform="translate(912)"><defs><clipPath id="clip_frame38_path_1"><path d="M5.06 1.711h13.994c1.892 0 3.416 1.371 3.416 3.073v10.411c0 1.703-1.524 3.074-3.416 3.074H5.305l-3.651 3.346-.01-1.833V4.784c0-1.702 1.523-3.073 3.416-3.073z"/></clipPath></defs><path d="M5.06 1.711h13.994c1.892 0 3.416 1.371 3.416 3.073v10.411c0 1.703-1.524 3.074-3.416 3.074H5.305l-3.651 3.346-.01-1.833V4.784c0-1.702 1.523-3.073 3.416-3.073z" fill="#ffffff" stroke="#000000" stroke-width="2" stroke-miterlimit="10"/><path clip-path="url(#clip_frame38_path_1)" d="M-.239 1.491s3.074-8.404 9.831-6.14c7.074 2.37 8.237 5.655 15.04-.322v27.629H-.239z" fill="#000000" stroke="#000000" stroke-width=".379499"/><path d="M.045 5.786l17.276-.09" fill="none" stroke="#ffffff" stroke-width="2.6"/><path d="M-.045 9.607l14.018-.044" fill="none" stroke="#ffffff" stroke-width="2.6" stroke-dasharray="12.475714156586088,1.5423548973171635" stroke-dashoffset="14.018069"/><path d="M.045 13.473h11.518" fill="none" stroke="#ffffff" stroke-width="2.6" stroke-dasharray="5.382942240816497,6.135057759183503" stroke-dashoffset="11.518"/></g><g transform="translate(936)"><defs><clipPath id="clip_frame39_path_1"><path d="M5.06 1.711h13.994c1.892 0 3.416 1.371 3.416 3.073v10.411c0 1.703-1.524 3.074-3.416 3.074H5.305l-3.651 3.346-.01-1.833V4.784c0-1.702 1.523-3.073 3.416-3.073z"/></clipPath></defs><path d="M5.06 1.711h13.994c1.892 0 3.416 1.371 3.416 3.073v10.411c0 1.703-1.524 3.074-3.416 3.074H5.305l-3.651 3.346-.01-1.833V4.784c0-1.702 1.523-3.073 3.416-3.073z" fill="#ffffff" stroke="#000000" stroke-width="2" stroke-miterlimit="10"/><path clip-path="url(#clip_frame39_path_1)" d="M-.239 1.491s3.074-8.404 9.831-6.14c7.074 2.37 8.237 5.655 15.04-.322v27.629H-.239z" fill="#000000" stroke="#000000" stroke-width=".379499"/><path d="M.045 5.786l17.276-.09" fill="none" stroke="#ffffff" stroke-width="2.6"/><path d="M-.045 9.607l14.018-.044" fill="none" stroke="#ffffff" stroke-width="2.6" stroke-dasharray="13.046691360418174,0.9713776934850784" stroke-dashoffset="14.018069"/><path d="M.045 13.473h11.518" fill="none" stroke="#ffffff" stroke-width="2.6" stroke-dasharray="6.886830349220551,4.63116965077945" stroke-dashoffset="11.518"/></g><g transform="translate(960)"><defs><clipPath id="clip_frame40_path_1"><path d="M5.06 1.711h13.994c1.892 0 3.416 1.371 3.416 3.073v10.411c0 1.703-1.524 3.074-3.416 3.074H5.305l-3.651 3.346-.01-1.833V4.784c0-1.702 1.523-3.073 3.416-3.073z"/></clipPath></defs><path d="M5.06 1.711h13.994c1.892 0 3.416 1.371 3.416 3.073v10.411c0 1.703-1.524 3.074-3.416 3.074H5.305l-3.651 3.346-.01-1.833V4.784c0-1.702 1.523-3.073 3.416-3.073z" fill="#ffffff" stroke="#000000" stroke-width="2" stroke-miterlimit="10"/><path clip-path="url(#clip_frame40_path_1)" d="M-.239 1.491s3.074-8.404 9.831-6.14c7.074 2.37 8.237 5.655 15.04-.322v27.629H-.239z" fill="#000000" stroke="#000000" stroke-width=".379499"/><path d="M.045 5.786l17.276-.09" fill="none" stroke="#ffffff" stroke-width="2.6"/><path d="M-.045 9.607l14.018-.044" fill="none" stroke="#ffffff" stroke-width="2.6" stroke-dasharray="13.45464059314191,0.5634284607613413" stroke-dashoffset="14.018069"/><path d="M.045 13.473h11.518" fill="none" stroke="#ffffff" stroke-width="2.6" stroke-dasharray="8.06841864108269,3.4495813589173103" stroke-dashoffset="11.518"/></g><g transform="translate(984)"><defs><clipPath id="clip_frame41_path_1"><path d="M5.06 1.711h13.994c1.892 0 3.416 1.371 3.416 3.073v10.411c0 1.703-1.524 3.074-3.416 3.074H5.305l-3.651 3.346-.01-1.833V4.784c0-1.702 1.523-3.073 3.416-3.073z"/></clipPath></defs><path d="M5.06 1.711h13.994c1.892 0 3.416 1.371 3.416 3.073v10.411c0 1.703-1.524 3.074-3.416 3.074H5.305l-3.651 3.346-.01-1.833V4.784c0-1.702 1.523-3.073 3.416-3.073z" fill="#ffffff" stroke="#000000" stroke-width="2" stroke-miterlimit="10"/><path clip-path="url(#clip_frame41_path_1)" d="M-.239 1.491s3.074-8.404 9.831-6.14c7.074 2.37 8.237 5.655 15.04-.322v27.629H-.239z" fill="#000000" stroke="#000000" stroke-width=".379499"/><path d="M.045 5.786l17.276-.09" fill="none" stroke="#ffffff" stroke-width="2.6"/><path d="M-.045 9.607l14.018-.044" fill="none" stroke="#ffffff" stroke-width="2.6" stroke-dasharray="13.734114652128921,0.2839544017743309" stroke-dashoffset="14.018069"/><path d="M.045 13.473h11.518" fill="none" stroke="#ffffff" stroke-width="2.6" stroke-dasharray="8.974753481305381,2.543246518694619" stroke-dashoffset="11.518"/></g><g transform="translate(1008)"><defs><clipPath id="clip_frame42_path_1"><path d="M5.06 1.711h13.994c1.892 0 3.416 1.371 3.416 3.073v10.411c0 1.703-1.524 3.074-3.416 3.074H5.305l-3.651 3.346-.01-1.833V4.784c0-1.702 1.523-3.073 3.416-3.073z"/></clipPath></defs><path d="M5.06 1.711h13.994c1.892 0 3.416 1.371 3.416 3.073v10.411c0 1.703-1.524 3.074-3.416 3.074H5.305l-3.651 3.346-.01-1.833V4.784c0-1.702 1.523-3.073 3.416-3.073z" fill="#ffffff" stroke="#000000" stroke-width="2" stroke-miterlimit="10"/><path clip-path="url(#clip_frame42_path_1)" d="M-.239 1.491s3.074-8.404 9.831-6.14c7.074 2.37 8.237 5.655 15.04-.322v27.629H-.239z" fill="#000000" stroke="#000000" stroke-width=".379499"/><path d="M.045 5.786l17.276-.09" fill="none" stroke="#ffffff" stroke-width="2.6"/><path d="M-.045 9.607l14.018-.044" fill="none" stroke="#ffffff" stroke-width="2.6" stroke-dasharray="13.909620250863213,0.10844880304003864" stroke-dashoffset="14.018069"/><path d="M.045 13.473h11.518" fill="none" stroke="#ffffff" stroke-width="2.6" stroke-dasharray="9.670671155395421,1.8473288446045801" stroke-dashoffset="11.518"/></g><g transform="translate(1032)"><defs><clipPath id="clip_frame43_path_1"><path d="M5.06 1.711h13.994c1.892 0 3.416 1.371 3.416 3.073v10.411c0 1.703-1.524 3.074-3.416 3.074H5.305l-3.651 3.346-.01-1.833V4.784c0-1.702 1.523-3.073 3.416-3.073z"/></clipPath></defs><path d="M5.06 1.711h13.994c1.892 0 3.416 1.371 3.416 3.073v10.411c0 1.703-1.524 3.074-3.416 3.074H5.305l-3.651 3.346-.01-1.833V4.784c0-1.702 1.523-3.073 3.416-3.073z" fill="#ffffff" stroke="#000000" stroke-width="2" stroke-miterlimit="10"/><path clip-path="url(#clip_frame43_path_1)" d="M-.239 1.491s3.074-8.404 9.831-6.14c7.074 2.37 8.237 5.655 15.04-.322v27.629H-.239z" fill="#000000" stroke="#000000" stroke-width=".379499"/><path d="M.045 5.786l17.276-.09" fill="none" stroke="#ffffff" stroke-width="2.6"/><path d="M-.045 9.607l14.018-.044" fill="none" stroke="#ffffff" stroke-width="2.6" stroke-dasharray="13.999117039496987,0.01895201440626503" stroke-dashoffset="14.018069"/><path d="M.045 13.473h11.518" fill="none" stroke="#ffffff" stroke-width="2.6" stroke-dasharray="10.206523069253988,1.311476930746013" stroke-dashoffset="11.518"/></g><g transform="translate(1056)"><defs><clipPath id="clip_frame44_path_1"><path d="M5.06 1.711h13.994c1.892 0 3.416 1.371 3.416 3.073v10.411c0 1.703-1.524 3.074-3.416 3.074H5.305l-3.651 3.346-.01-1.833V4.784c0-1.702 1.523-3.073 3.416-3.073z"/></clipPath></defs><path d="M5.06 1.711h13.994c1.892 0 3.416 1.371 3.416 3.073v10.411c0 1.703-1.524 3.074-3.416 3.074H5.305l-3.651 3.346-.01-1.833V4.784c0-1.702 1.523-3.073 3.416-3.073z" fill="#ffffff" stroke="#000000" stroke-width="2" stroke-miterlimit="10"/><path clip-path="url(#clip_frame44_path_1)" d="M-.239 1.491s3.074-8.404 9.831-6.14c7.074 2.37 8.237 5.655 15.04-.322v27.629H-.239z" fill="#000000" stroke="#000000" stroke-width=".379499"/><path d="M.045 5.786l17.276-.09M-.045 9.607l14.018-.044" fill="none" stroke="#ffffff" stroke-width="2.6"/><path d="M.045 13.473h11.518" fill="none" stroke="#ffffff" stroke-width="2.6" stroke-dasharray="10.61810790106149,0.8998920989385107" stroke-dashoffset="11.518"/></g><g transform="translate(1080)"><defs><clipPath id="clip_frame45_path_1"><path d="M5.06 1.711h13.994c1.892 0 3.416 1.371 3.416 3.073v10.411c0 1.703-1.524 3.074-3.416 3.074H5.305l-3.651 3.346-.01-1.833V4.784c0-1.702 1.523-3.073 3.416-3.073z"/></clipPath></defs><path d="M5.06 1.711h13.994c1.892 0 3.416 1.371 3.416 3.073v10.411c0 1.703-1.524 3.074-3.416 3.074H5.305l-3.651 3.346-.01-1.833V4.784c0-1.702 1.523-3.073 3.416-3.073z" fill="#ffffff" stroke="#000000" stroke-width="2" stroke-miterlimit="10"/><path clip-path="url(#clip_frame45_path_1)" d="M-.239 1.491s3.074-8.404 9.831-6.14c7.074 2.37 8.237 5.655 15.04-.322v27.629H-.239z" fill="#000000" stroke="#000000" stroke-width=".379499"/><path d="M.045 5.786l17.276-.09M-.045 9.607l14.018-.044" fill="none" stroke="#ffffff" stroke-width="2.6"/><path d="M.045 13.473h11.518" fill="none" stroke="#ffffff" stroke-width="2.6" stroke-dasharray="10.930844778302673,0.5871552216973277" stroke-dashoffset="11.518"/></g><g transform="translate(1104)"><defs><clipPath id="clip_frame46_path_1"><path d="M5.06 1.711h13.994c1.892 0 3.416 1.371 3.416 3.073v10.411c0 1.703-1.524 3.074-3.416 3.074H5.305l-3.651 3.346-.01-1.833V4.784c0-1.702 1.523-3.073 3.416-3.073z"/></clipPath></defs><path d="M5.06 1.711h13.994c1.892 0 3.416 1.371 3.416 3.073v10.411c0 1.703-1.524 3.074-3.416 3.074H5.305l-3.651 3.346-.01-1.833V4.784c0-1.702 1.523-3.073 3.416-3.073z" fill="#ffffff" stroke="#000000" stroke-width="2" stroke-miterlimit="10"/><path clip-path="url(#clip_frame46_path_1)" d="M-.239 1.491s3.074-8.404 9.831-6.14c7.074 2.37 8.237 5.655 15.04-.322v27.629H-.239z" fill="#000000" stroke="#000000" stroke-width=".379499"/><path d="M.045 5.786l17.276-.09M-.045 9.607l14.018-.044" fill="none" stroke="#ffffff" stroke-width="2.6"/><path d="M.045 13.473h11.518" fill="none" stroke="#ffffff" stroke-width="2.6" stroke-dasharray="11.163152685688,0.35484731431199923" stroke-dashoffset="11.518"/></g><g transform="translate(1128)"><defs><clipPath id="clip_frame47_path_1"><path d="M5.06 1.711h13.994c1.892 0 3.416 1.371 3.416 3.073v10.411c0 1.703-1.524 3.074-3.416 3.074H5.305l-3.651 3.346-.01-1.833V4.784c0-1.702 1.523-3.073 3.416-3.073z"/></clipPath></defs><path d="M5.06 1.711h13.994c1.892 0 3.416 1.371 3.416 3.073v10.411c0 1.703-1.524 3.074-3.416 3.074H5.305l-3.651 3.346-.01-1.833V4.784c0-1.702 1.523-3.073 3.416-3.073z" fill="#ffffff" stroke="#000000" stroke-width="2" stroke-miterlimit="10"/><path clip-path="url(#clip_frame47_path_1)" d="M-.239 1.491s3.074-8.404 9.831-6.14c7.074 2.37 8.237 5.655 15.04-.322v27.629H-.239z" fill="#000000" stroke="#000000" stroke-width=".379499"/><path d="M.045 5.786l17.276-.09M-.045 9.607l14.018-.044" fill="none" stroke="#ffffff" stroke-width="2.6"/><path d="M.045 13.473h11.518" fill="none" stroke="#ffffff" stroke-width="2.6" stroke-dasharray="11.328711323723178,0.1892886762768233" stroke-dashoffset="11.518"/></g><g transform="translate(1152)"><defs><clipPath id="clip_frame48_path_1"><path d="M5.06 1.711h13.994c1.892 0 3.416 1.371 3.416 3.073v10.411c0 1.703-1.524 3.074-3.416 3.074H5.305l-3.651 3.346-.01-1.833V4.784c0-1.702 1.523-3.073 3.416-3.073z"/></clipPath></defs><path d="M5.06 1.711h13.994c1.892 0 3.416 1.371 3.416 3.073v10.411c0 1.703-1.524 3.074-3.416 3.074H5.305l-3.651 3.346-.01-1.833V4.784c0-1.702 1.523-3.073 3.416-3.073z" fill="#ffffff" stroke="#000000" stroke-width="2" stroke-miterlimit="10"/><path clip-path="url(#clip_frame48_path_1)" d="M-.239 1.491s3.074-8.404 9.831-6.14c7.074 2.37 8.237 5.655 15.04-.322v27.629H-.239z" fill="#000000" stroke="#000000" stroke-width=".379499"/><path d="M.045 5.786l17.276-.09M-.045 9.607l14.018-.044" fill="none" stroke="#ffffff" stroke-width="2.6"/><path d="M.045 13.473h11.518" fill="none" stroke="#ffffff" stroke-width="2.6" stroke-dasharray="11.437926223148354,0.08007377685164685" stroke-dashoffset="11.518"/></g><g transform="translate(1176)"><defs><clipPath id="clip_frame49_path_1"><path d="M5.06 1.711h13.994c1.892 0 3.416 1.371 3.416 3.073v10.411c0 1.703-1.524 3.074-3.416 3.074H5.305l-3.651 3.346-.01-1.833V4.784c0-1.702 1.523-3.073 3.416-3.073z"/></clipPath></defs><path d="M5.06 1.711h13.994c1.892 0 3.416 1.371 3.416 3.073v10.411c0 1.703-1.524 3.074-3.416 3.074H5.305l-3.651 3.346-.01-1.833V4.784c0-1.702 1.523-3.073 3.416-3.073z" fill="#ffffff" stroke="#000000" stroke-width="2" stroke-miterlimit="10"/><path clip-path="url(#clip_frame49_path_1)" d="M-.239 1.491s3.074-8.404 9.831-6.14c7.074 2.37 8.237 5.655 15.04-.322v27.629H-.239z" fill="#000000" stroke="#000000" stroke-width=".379499"/><path d="M.045 5.786l17.276-.09M-.045 9.607l14.018-.044" fill="none" stroke="#ffffff" stroke-width="2.6"/><path d="M.045 13.473h11.518" fill="none" stroke="#ffffff" stroke-width="2.6" stroke-dasharray="11.498885919034379,0.019114080965622424" stroke-dashoffset="11.518"/></g><g transform="translate(1200)"><defs><clipPath id="clip_frame50_path_1"><path d="M5.06 1.711h13.994c1.892 0 3.416 1.371 3.416 3.073v10.411c0 1.703-1.524 3.074-3.416 3.074H5.305l-3.651 3.346-.01-1.833V4.784c0-1.702 1.523-3.073 3.416-3.073z"/></clipPath></defs><path d="M5.06 1.711h13.994c1.892 0 3.416 1.371 3.416 3.073v10.411c0 1.703-1.524 3.074-3.416 3.074H5.305l-3.651 3.346-.01-1.833V4.784c0-1.702 1.523-3.073 3.416-3.073z" fill="#ffffff" stroke="#000000" stroke-width="2" stroke-miterlimit="10"/><path clip-path="url(#clip_frame50_path_1)" d="M-.239 1.491s3.074-8.404 9.831-6.14c7.074 2.37 8.237 5.655 15.04-.322v27.629H-.239z" fill="#000000" stroke="#000000" stroke-width=".379499"/><path d="M.045 5.786l17.276-.09M-.045 9.607l14.018-.044M.045 13.473h11.518" fill="none" stroke="#ffffff" stroke-width="2.6"/></g></svg>